<?xml version="1.0" encoding="utf-8"?>
<!-- Generator: Adobe Illustrator 24.0.1, SVG Export Plug-In . SVG Version: 6.00 Build 0)  -->
<svg version="1.1" id="Capa_1" xmlns="http://www.w3.org/2000/svg" xmlns:xlink="http://www.w3.org/1999/xlink" x="0px" y="0px"
	 viewBox="0 0 77.1 70.7" style="enable-background:new 0 0 77.1 70.7;" xml:space="preserve">
<style type="text/css">
	.st0{fill:#2F455F;}
	.st1{clip-path:url(#SVGID_2_);}
	.st2{fill:#FFFFFF;}
</style>
<title>coins</title>
<path id="Path_679" class="st0" d="M7.7,0h61.7c4.3,0,7.7,3.5,7.7,7.7V63c0,4.3-3.5,7.7-7.7,7.7H7.7C3.5,70.7,0,67.3,0,63l0,0V7.7
	C0,3.5,3.5,0,7.7,0L7.7,0z"/>
<g>
	<defs>
		<rect id="SVGID_1_" x="20.6" y="20.6" width="34.7" height="32.1"/>
	</defs>
	<clipPath id="SVGID_2_">
		<use xlink:href="#SVGID_1_"  style="overflow:visible;"/>
	</clipPath>
	<g class="st1">
		<g id="Group_3">
			<path id="Path_2" class="st2" d="M55.5,31.5c-0.1-1-1.2-1.8-3.6-2.4c0.1-0.2,0.1-0.4,0.1-0.5v-4.1l0,0C51.8,21.1,37.9,21,36.3,21
				s-15.5,0.1-15.8,3.5l0,0v4.1c0,1.1,1.4,2,3.6,2.6c0,0.1,0,0.2,0,0.3l0,0v4.1c-2.3,0.6-3.4,1.3-3.5,2.3l0,0V42
				c0,0.8,0.7,1.4,1.8,2c0,0.1-0.1,0.2-0.1,0.4l0,0v4.1c0,1.9,4.4,3.1,9.2,3.7h0.1l0,0c0.9,0.1,1.9,0.2,2.8,0.2h0.1
				c1.2,0.1,2.4,0.1,3.5,0.1s2.3,0,3.5-0.1h0.1c0.9-0.1,1.9-0.1,2.8-0.2l0,0h0.1c4.8-0.6,9.2-1.8,9.2-3.7v-4.1l0,0
				c0-0.7-0.7-1.3-1.8-1.8c0.1-0.2,0.1-0.3,0.1-0.5v-3.8c2.1-0.7,3.5-1.5,3.5-2.6L55.5,31.5L55.5,31.5z M50.8,42.2l-0.2,0.2
				c-0.4,0.3-1,0.6-1.5,0.8v-2.8c0.6-0.2,1.2-0.5,1.8-0.8V42C50.9,42.1,50.8,42.2,50.8,42.2 M37.8,44.9h-0.9V42h0.6l1.8-0.1v2.9
				h-0.4L37.8,44.9 M35.3,44.9h-0.8h-0.1h-1V42h1.8h0.6v3L35.3,44.9 M24.7,43.6L24.7,43.6l-0.1-2.8c0.5,0.1,1.1,0.3,1.8,0.4V44
				c-0.5-0.1-1-0.2-1.5-0.3L24.7,43.6 M37,48.5h0.5v2.9c-0.8,0-1.6,0-2.3-0.1v-2.9c0.6,0,1.2,0,1.8,0.1H37 M39.2,48.5l1.8-0.1v2.9
				c-0.8,0-1.5,0.1-2.3,0.1v-2.9H39.2 M43.9,48.2v2.9l-1.8,0.2v-2.9C42.7,48.3,43.3,48.2,43.9,48.2 M45,48.1
				c0.6-0.1,1.2-0.2,1.8-0.2v2.9c-0.6,0.1-1.1,0.2-1.8,0.3V48.1z M48,47.6c0.6-0.1,1.2-0.3,1.8-0.4V50c-0.5,0.2-1.1,0.3-1.8,0.4
				V47.6z M28.1,47.6v2.8c-0.7-0.1-1.2-0.3-1.8-0.4v-2.8C26.9,47.3,27.5,47.5,28.1,47.6 M29.3,47.8l1.8,0.2V51l-1.8-0.3V47.8z
				 M32.2,48.2c0.6,0.1,1.2,0.1,1.8,0.1v2.9c-0.6,0-1.2-0.1-1.8-0.2V48.2z M30.8,44.7h-0.2h-0.1v-2.9c0.6,0.1,1.2,0.1,1.8,0.1v2.9
				C31.8,44.9,31.2,44.8,30.8,44.7 M29.3,41.7v2.9c-0.6-0.1-1.2-0.2-1.8-0.3v-2.9C28.1,41.5,28.7,41.6,29.3,41.7 M40.8,44.8h-0.4
				v-2.9c0.6,0,1.2-0.1,1.8-0.1v2.9l-1.1,0.1L40.8,44.8 M43.3,44.5v-2.9c0.6-0.1,1.2-0.2,1.8-0.2v2.9C44.5,44.4,44,44.5,43.3,44.5
				 M46.2,41.2c0.6-0.1,1.2-0.3,1.8-0.4v2.8c-0.5,0.2-1.1,0.3-1.8,0.4V41.2z M38.2,38.5H37h-0.1v-3c0.6,0,1.2,0,1.8,0h0.6v2.9
				L38.2,38.5 M24.6,30.2v-2.8c0.5,0.2,1.1,0.3,1.8,0.4v2.8h-0.2c-0.3-0.1-0.6-0.1-0.9-0.2L24.6,30.2 M35.2,28.7h0.5v2.9
				c-0.8,0-1.6,0-2.3-0.1v-2.9c0.6,0,1.2,0,1.8,0.1L35.2,28.7 M37.4,28.6c0.6,0,1.2,0,1.8-0.1v2.9h-0.3l0,0h-1.2h-0.8v-2.8
				L37.4,28.6 M50.8,28.9L50.8,28.9L50.6,29c-0.4,0.3-0.9,0.5-1.4,0.7V27c0.6-0.2,1.2-0.5,1.8-0.8v2.4
				C50.9,28.7,50.9,28.8,50.8,28.9 M43.4,31.1v-2.8l1.8-0.2v2.9C44.5,31,44,31,43.4,31.1 M46.3,30.6v-2.9c0.6-0.1,1.2-0.2,1.8-0.4
				v2.8C47.5,30.3,46.9,30.5,46.3,30.6 M42.2,28.3v2.9c-0.6,0.1-1.2,0.1-1.8,0.2v-2.9L42.2,28.3 M30.5,31.2v-2.9
				c0.6,0.1,1.2,0.1,1.8,0.1v2.9C31.6,31.4,31,31.3,30.5,31.2 M29.3,28.2v2.9h-0.3h-0.2l-1-0.2h-0.2v-3
				C28.1,28.1,28.7,28.2,29.3,28.2 M35.6,38.4h-0.2l-1.1-0.1h-0.3v-2.9l1.8,0.1v2.9L35.6,38.4 M31.7,38L31,37.9V35
				c0.6,0.1,1.1,0.2,1.8,0.2v2.9L31.7,38L31.7,38 M29.9,34.8v2.8c-0.7-0.1-1.2-0.3-1.8-0.4v-2.8C28.7,34.5,29.3,34.7,29.9,34.8
				 M27,34v2.8c-0.6-0.2-1.2-0.5-1.7-1v-0.1c0,0,0,0,0-0.1v-2.5C25.8,33.5,26.4,33.8,27,34 M41,35.6h1.8v2.9c-0.8,0-1.5,0.1-2.3,0.1
				v-3L41,35.6 M48.5,37.9L47.7,38l-0.5,0.1l-0.4,0.1v-2.9c0.6-0.1,1.2-0.2,1.8-0.2L48.5,37.9L48.5,37.9 M44.5,38.4l-0.7,0.1v-2.9
				l1.8-0.1v2.9L44.5,38.4L44.5,38.4 M51.2,37.2l-0.9,0.2l-0.4,0.1h-0.1v-2.8c0.6-0.1,1.2-0.3,1.8-0.4v2.8L51.2,37.2 M54.4,31.6
				c0,0.4-1,0.9-2.6,1.4c-3.1,0.8-6.2,1.3-9.4,1.4h-0.6h-0.5l-1.5,0.1h-1.5h-0.5h-0.6c-3.2-0.1-6.3-0.6-9.4-1.5
				c-1.6-0.5-2.5-1-2.5-1.4l0,0h0.1l0.7,0.2c1.3,0.3,2.5,0.5,3.8,0.6l0,0c0.9,0.1,1.9,0.2,2.9,0.2l0,0c0.7,0,1.4,0.1,2.2,0.1h2.3
				c3.7,0,7.3-0.5,10.9-1.4l0.4-0.1l0.2-0.1l0.6-0.2h0.1l0.5-0.2l0.1-0.1c0.2-0.1,0.3-0.1,0.5-0.2l0.2-0.1c0.1,0,0.1-0.1,0.2-0.1
				c0,0,0.1,0,0.1-0.1C53.6,30.7,54.3,31.4,54.4,31.6 M36.3,22.2c9.6,0,14.5,1.5,14.6,2.4c-0.1,0.4-1,0.9-2.6,1.4
				c-3.1,0.8-6.2,1.3-9.4,1.4h-0.6h-0.5h-1.5h-1.5h-0.5h-0.6c-3.2-0.1-6.3-0.5-9.4-1.4c-1.6-0.5-2.5-1-2.6-1.4
				C21.8,23.7,26.7,22.2,36.3,22.2 M21.7,28.6v-2.4c0.6,0.3,1.1,0.6,1.8,0.8v2.8C22.3,29.4,21.7,29,21.7,28.6 M24.5,36.7L24.5,36.7
				c1.3,1,2.9,1.7,4.5,1.9h0.1l0.5,0.1c2.2,0.4,4.4,0.7,6.6,0.8l0,0c0.8,0.1,1.6,0.1,2.4,0.1h1.1c0.4,0,0.8,0,1.2,0
				c0.8,0,1.5,0,2.3-0.1l0,0c2.3-0.1,4.5-0.4,6.7-0.9c-0.6,0.3-1.1,0.5-1.7,0.7c-3.3,0.9-6.7,1.4-10.1,1.5h-2h-1.4h-0.5h-0.6
				c-3.2-0.1-6.3-0.6-9.4-1.4c-1.6-0.5-2.5-1-2.6-1.4C21.8,37.8,22.4,37.3,24.5,36.7 M21.7,42.1v-2.5c0.6,0.3,1.1,0.6,1.8,0.8v2.8
				l-0.3-0.1l0,0C22.2,42.7,21.7,42.3,21.7,42.1 M23.4,48.5v-2.4c0.6,0.3,1.1,0.6,1.8,0.8v2.8C24.1,49.2,23.4,48.8,23.4,48.5
				 M50.9,49.7v-2.8c0.6-0.2,1.2-0.5,1.8-0.8v2.4C52.6,48.8,52,49.2,50.9,49.7 M52.6,44.4c-0.1,0.4-1,0.9-2.6,1.4
				c-3.1,0.9-6.2,1.3-9.4,1.4h-0.6h-0.5H38h-1.5H36h-0.6c-3.2-0.1-6.3-0.5-9.4-1.4c-1.5-0.5-2.4-1-2.5-1.4l0.5,0.2h0.1l0.5,0.1h0.2
				l0.3,0.1c2.6,0.6,5.2,1,7.8,1.1l0,0c0.9,0.1,1.8,0.1,2.8,0.1h1.7c0.8,0,1.7,0,2.5-0.1l0,0c1-0.1,2-0.2,2.9-0.3l0,0
				c1-0.1,2-0.3,2.9-0.4l0.6-0.1h0.1c1.5-0.2,2.9-0.7,4.3-1.4l0.2-0.1l0.2-0.1l0.2-0.1C52.3,44,52.6,44.3,52.6,44.4 M52.6,36.8V34
				c0.6-0.2,1.2-0.5,1.8-0.8v2.4C54.4,36,53.8,36.4,52.6,36.8"/>
		</g>
	</g>
</g>
</svg>
