<?xml version="1.0" encoding="utf-8"?>
<!-- Generator: Adobe Illustrator 22.0.0, SVG Export Plug-In . SVG Version: 6.00 Build 0)  -->
<svg version="1.1" id="Capa_1" xmlns="http://www.w3.org/2000/svg" xmlns:xlink="http://www.w3.org/1999/xlink" x="0px" y="0px"
	 viewBox="0 0 512 512" style="enable-background:new 0 0 512 512;" xml:space="preserve">
<g>
	<g>
		<g>
			<path d="M102.9,93.6c-7.7,0-13.9,6.2-13.9,13.9v55.7c0,7.6-3.6,14.3-9.3,18.5v-74.2c0-7.7-6.2-13.9-13.9-13.9
				s-13.9,6.2-13.9,13.9v74.2c-5.6-4.2-9.3-11-9.3-18.5v-55.7c0-7.7-6.2-13.9-13.9-13.9s-13.9,6.2-13.9,13.9v55.7
				c0,23.3,15.7,43,37.1,49.1V423c0,7.7,6.2,13.9,13.9,13.9s13.9-6.2,13.9-13.9V212.3c21.4-6.1,37.1-25.8,37.1-49.1v-55.7
				C116.8,99.9,110.6,93.6,102.9,93.6z"/>
		</g>
	</g>
	<g>
		<g>
			<path d="M483.3,75.1c-40.9,0-74.2,33.3-74.2,74.2v125.3c0,7.7,6.2,13.9,13.9,13.9h46.4V423c0,7.7,6.2,13.9,13.9,13.9
				c7.7,0,13.9-6.2,13.9-13.9V89C497.2,81.3,491,75.1,483.3,75.1z M469.4,260.6h-32.5V149.3c0-20.7,13.7-38.3,32.5-44.3V260.6z"/>
		</g>
	</g>
	<g>
		<g>
			<path d="M256,112.2c-79.3,0-143.8,64.5-143.8,143.8S176.7,399.8,256,399.8S399.8,335.3,399.8,256S335.3,112.2,256,112.2z
				 M256,372c-63.9,0-116-52-116-116s52-116,116-116s116,52,116,116S319.9,372,256,372z"/>
		</g>
	</g>
	<g>
		<g>
			<path d="M256,167.9c-48.6,0-88.1,39.5-88.1,88.1s39.5,88.1,88.1,88.1s88.1-39.5,88.1-88.1S304.6,167.9,256,167.9z M256,316.3
				c-33.3,0-60.3-27.1-60.3-60.3s27.1-60.3,60.3-60.3s60.3,27.1,60.3,60.3S289.3,316.3,256,316.3z"/>
		</g>
	</g>
</g>
</svg>
