<?xml version="1.0" encoding="utf-8"?>
<!-- Generator: Adobe Illustrator 20.0.0, SVG Export Plug-In . SVG Version: 6.00 Build 0)  -->
<svg version="1.1" id="Layer_1" xmlns="http://www.w3.org/2000/svg" xmlns:xlink="http://www.w3.org/1999/xlink" x="0px" y="0px"
	 viewBox="0 0 229 229" style="enable-background:new 0 0 229 229;" xml:space="preserve">
<style type="text/css">
	.st0{fill:#FFFFFF;}
</style>
<g>
	<g>
		<path class="st0" d="M205.6,160.7H23.4c-1,0-1.9-0.3-2.6-1s-1-1.7-0.9-2.6c3.4-49.3,45-88,94.5-88s91,38.7,94.5,88
			c0,1-0.3,1.9-0.9,2.6S206.5,160.7,205.6,160.7z M27.1,153.9h174.7c-5-44-42.6-77.9-87.4-77.9S32.1,109.9,27.1,153.9z"/>
	</g>
	<g>
		<path class="st0" d="M46.8,143.9c-0.2,0-0.3,0-0.5,0c-0.9-0.3-1.4-1.2-1.2-2.1c9.1-31.7,37.5-53.6,69.4-53.6c1,0,1.7,0.7,1.7,1.7
			s-0.7,1.7-1.7,1.7c-30.3,0-57.6,21.1-66.1,51C48.2,143.4,47.5,143.9,46.8,143.9z"/>
	</g>
	<g>
		<path class="st0" d="M209.9,180.6H19.1c-7.4,0-13.4-6-13.4-13.4s6-13.4,13.4-13.4h190.8c7.4,0,13.4,6,13.4,13.4
			S217.3,180.6,209.9,180.6z M19.1,160.7c-3.6,0-6.5,2.9-6.5,6.5s2.9,6.5,6.5,6.5h190.8c3.6,0,6.5-2.9,6.5-6.5s-2.9-6.5-6.5-6.5
			H19.1z"/>
	</g>
	<g>
		<path class="st0" d="M114.5,75.9c-1.9,0-3.4-1.5-3.4-3.4V59.8c0-1.9,1.5-3.4,3.4-3.4s3.4,1.5,3.4,3.4v12.7
			C117.9,74.4,116.4,75.9,114.5,75.9z"/>
	</g>
	<g>
		<path class="st0" d="M114.5,63.3c-9.6,0-17.3-7.7-17.3-17.3s7.7-17.5,17.3-17.5s17.3,7.7,17.3,17.3S124.1,63.3,114.5,63.3z
			 M114.5,35.4c-5.8,0-10.4,4.6-10.4,10.4s4.6,10.4,10.4,10.4s10.4-4.6,10.4-10.4S120.3,35.4,114.5,35.4z"/>
	</g>
</g>
</svg>
