<?xml version="1.0" encoding="utf-8"?>
<!-- Generator: Adobe Illustrator 22.0.0, SVG Export Plug-In . SVG Version: 6.00 Build 0)  -->
<svg version="1.1" id="Layer_1" xmlns="http://www.w3.org/2000/svg" xmlns:xlink="http://www.w3.org/1999/xlink" x="0px" y="0px"
	 viewBox="0 0 299.7 299.7" style="enable-background:new 0 0 299.7 299.7;" xml:space="preserve">
<g>
	<g>
		<g>
			<path d="M86.8,142.4c-2.9,0-5.8,1.2-7.9,3.3c-2.1,2.1-3.3,4.9-3.3,7.9c0,2.9,1.2,5.8,3.3,7.9c2.1,2.1,4.9,3.3,7.9,3.3
				c2.9,0,5.8-1.2,7.9-3.3c2.1-2.1,3.3-4.9,3.3-7.9c0-2.9-1.2-5.8-3.3-7.9C92.6,143.6,89.8,142.4,86.8,142.4z"/>
			<path d="M64.6,179.5c-2.9,0-5.8,1.2-7.9,3.3c-2.1,2.1-3.3,4.9-3.3,7.9c0,2.9,1.2,5.8,3.3,7.9c2.1,2.1,4.9,3.3,7.9,3.3
				c2.9,0,5.8-1.2,7.9-3.3c2.1-2.1,3.3-4.9,3.3-7.9s-1.2-5.8-3.3-7.9C70.4,180.7,67.5,179.5,64.6,179.5z"/>
			<path d="M138.7,94.2c0-5.2-3.6-9.6-8.5-10.8c-5-25.5-27.6-44.8-54.5-44.8S26.2,57.9,21.2,83.5c-4.9,1.2-8.5,5.6-8.5,10.8
				c0,4.7,2.9,8.6,6.9,10.3l-6.9,144.9c-0.1,3,1,6,3.1,8.2c2.1,2.2,5,3.4,8,3.4h103.8c3,0,5.9-1.2,8-3.4c2.1-2.2,3.2-5.2,3.1-8.2
				l-6.9-144.9C135.9,102.9,138.7,98.9,138.7,94.2z M75.7,60.9c14.5,0,26.9,9.3,31.4,22.2H44.3C48.9,70.2,61.2,60.9,75.7,60.9z
				 M35.5,238.8l6.4-133.4h67.8l6.4,133.4H35.5z"/>
			<path d="M229.2,181.9c-2.9,0-5.8,1.2-7.9,3.3c-2.1,2.1-3.3,4.9-3.3,7.9s1.2,5.8,3.3,7.9c2.1,2.1,4.9,3.3,7.9,3.3
				c2.9,0,5.8-1.2,7.9-3.3c2.1-2.1,3.3-4.9,3.3-7.9c0-2.9-1.2-5.8-3.3-7.9C235,183.1,232.2,181.9,229.2,181.9z"/>
			<path d="M226.6,159c2.1-2.1,3.3-4.9,3.3-7.9c0-2.9-1.2-5.8-3.3-7.9c-2.1-2.1-4.9-3.3-7.9-3.3s-5.8,1.2-7.9,3.3
				c-2.1,2.1-3.3,4.9-3.3,7.9s1.2,5.8,3.3,7.9c2.1,2.1,4.9,3.3,7.9,3.3C221.7,162.2,224.5,161.1,226.6,159z"/>
			<path d="M287,94.2c0-5.2-3.6-9.6-8.5-10.8c-5-25.5-27.6-44.8-54.5-44.8s-49.5,19.3-54.5,44.8c-4.9,1.2-8.5,5.6-8.5,10.8
				c0,4.7,2.9,8.6,6.9,10.3L161,249.4c-0.1,3,1,6,3.1,8.2c2.1,2.2,5,3.4,8,3.4h103.8c3,0,5.9-1.2,8-3.4c2.1-2.2,3.2-5.2,3.1-8.2
				l-6.9-144.9C284.1,102.9,287,98.9,287,94.2z M224,60.9c14.5,0,26.9,9.3,31.4,22.2h-62.9C197.1,70.2,209.5,60.9,224,60.9z
				 M183.8,238.8l6.4-133.4h67.8l6.4,133.4H183.8z"/>
		</g>
	</g>
</g>
</svg>
