<?xml version="1.0" encoding="utf-8"?>
<!-- Generator: Adobe Illustrator 20.0.0, SVG Export Plug-In . SVG Version: 6.00 Build 0)  -->
<svg version="1.1" id="Layer_1" xmlns="http://www.w3.org/2000/svg" xmlns:xlink="http://www.w3.org/1999/xlink" x="0px" y="0px"
	 viewBox="0 0 229 229" style="enable-background:new 0 0 229 229;" xml:space="preserve">
<style type="text/css">
	.st0{fill:#FFFFFF;}
</style>
<g>
	<path class="st0" d="M223.7,173.6L207.8,94V74.4c-0.2-23.8-19.4-42.9-43.1-42.9s-42.9,19.1-42.9,42.9V94L106,173.6
		c-1.1,5.7,0.2,11.4,4,15.8c3.7,4.4,9,7,14.7,7h80.1c5.7,0,11.2-2.6,14.7-7C223.2,185.1,224.8,179.3,223.7,173.6z M128.4,90.9V77.7
		H201v13.2H128.4z M164.7,38.1c18.9,0,34.5,14.5,36.1,33h-72.2C130.4,52.6,145.8,38.1,164.7,38.1z M115,185.3
		c-2.4-2.9-3.3-6.6-2.6-10.3l15.4-77.4h53.9l18.5,92.4h-75.5C120.9,189.9,117.4,188.1,115,185.3z M214.4,185.3c-2,2.4-4.6,4-7.5,4.4
		l-18.5-92.2h13l15.4,77.4C217.9,178.7,216.8,182.4,214.4,185.3z"/>
	<circle class="st0" cx="164.7" cy="49.5" r="4.8"/>
	<circle class="st0" cx="179.7" cy="59.7" r="4.8"/>
	<circle class="st0" cx="150" cy="59.7" r="4.8"/>
	<polygon class="st0" points="172,114.7 165.4,114.7 177.2,174.1 183.8,174.1 	"/>
</g>
<g>
	<path class="st0" d="M8.7,190.7c2.9,3.6,7.4,5.8,12.1,5.8h65.8c4.7,0,9-2.2,12.1-5.8c3.1-3.6,4.2-8.3,3.3-13l-13-65.4V96.2
		C88.9,76.7,73.2,61,53.7,61S18.4,76.7,18.3,96.2v16.1l-13,65.4C4.3,182.4,5.6,187.1,8.7,190.7z M23.9,109.8V98.9h59.6v10.8H23.9z
		 M83.3,93.5H24c1.3-15.2,14.1-27.1,29.6-27.1S81.9,78.3,83.3,93.5z M86.6,191.1h-62l15.2-75.9H84l12.6,63.6
		c0.5,3.1-0.2,6.1-2.2,8.5C92.5,189.6,89.6,191.1,86.6,191.1z M10.8,178.8l12.6-63.6h10.7L19,190.9c-2.3-0.4-4.5-1.6-6.1-3.6
		C10.8,184.9,9.9,181.9,10.8,178.8z"/>
	<circle class="st0" cx="53.7" cy="75.8" r="4"/>
	<circle class="st0" cx="41.4" cy="84.1" r="4"/>
	<circle class="st0" cx="65.8" cy="84.1" r="4"/>
	<polygon class="st0" points="37.9,178.1 43.4,178.1 53.1,129.3 47.7,129.3 	"/>
</g>
</svg>
