<?xml version="1.0" encoding="utf-8"?>
<!-- Generator: Adobe Illustrator 20.0.0, SVG Export Plug-In . SVG Version: 6.00 Build 0)  -->
<svg version="1.1" id="Capa_1" xmlns="http://www.w3.org/2000/svg" xmlns:xlink="http://www.w3.org/1999/xlink" x="0px" y="0px"
	 viewBox="0 0 229.2 229.2" style="enable-background:new 0 0 229.2 229.2;" xml:space="preserve">
<style type="text/css">
	.st0{fill:#FFFFFF;}
</style>
<g>
	<path class="st0" d="M155.5,158.7H35.2c-0.5,0-0.9-0.2-1.4-0.2c-7.6-2.5-10.6-7.3-11.8-10.9c-3.9-11.9,6.4-26.8,7.4-28.4
		c21.9-27.2,47.2-32.7,64.4-32.7c33.8,0,63.5,21,71.2,40.5c4.5,11.2,5,19.7,1.2,25.6C162.6,158.3,156.3,158.7,155.5,158.7
		C155.6,158.7,155.6,158.7,155.5,158.7z M35.8,150h119.5c0.5-0.2,2.6-0.5,3.9-2.5c1.1-1.9,2.5-6.7-2-17.5
		C150.4,113.1,123.4,95,94,95c-15.5,0-38,5.1-57.6,29.3c-2.3,3.3-8.4,14-6.2,20.6C31,147.2,32.9,149,35.8,150z"/>
	<path class="st0" d="M150.5,219.1h-111c-9.8,0-17.7-10.6-17.7-23.6v-2.2c0-2.5,1.9-4.3,4.3-4.3h137.7c2.5,0,4.3,1.9,4.3,4.3v2.2
		C168.2,208.5,160.3,219.1,150.5,219.1z M30.6,197.7c0.8,7,4.5,12.7,8.8,12.7h111c3.9,0,8.2-5.1,8.8-12.7H30.6z"/>
	<path class="st0" d="M96.5,183.4c-6.5,0-13-2.2-19.4-6.8c-5.9-4-10.4-5.9-14.9-5.9c-2.8,0-4.3,0-5.6,0.8c-0.8,0.5-1.4,1.1-2,1.7
		c-0.9,0.9-1.9,1.9-2.9,2.5c-12.9,9-26.7,6.8-38.6-6.1c-1.6-1.7-1.6-4.5,0.2-6.2c1.7-1.6,4.5-1.6,6.2,0.2
		c9.2,9.9,17.8,11.5,27.3,4.8c0.8-0.5,1.2-1.1,1.9-1.7c0.9-0.8,1.9-1.9,3.1-2.6c3.4-2.3,7.1-2.2,10.1-2.2c8.4,0.2,15.1,4.2,20,7.6
		c5.1,3.6,10.2,5.3,15.2,5.1c3.6-0.2,7.9-2.8,11.9-5.4c2.5-1.6,4.8-3.1,7.3-4.2c6.2-2.9,12.3-2.6,17.5,1.1c1.2,0.8,2.5,1.9,3.7,2.8
		c2.5,1.9,5.1,3.9,7.6,5.1c4,1.9,9.2,0.6,13.7-3.3c0.9-0.8,1.7-1.6,2.5-2.3c2.9-2.8,6.2-5.9,11.9-6.2c2.2,0,4.3,1.9,4.5,4.2
		s-1.9,4.3-4.2,4.5c-2.2,0.2-3.6,1.2-6.2,3.7c-0.9,0.9-1.9,1.9-2.9,2.8c-7.1,6.1-15.5,7.8-22.7,4.5c-3.3-1.6-6.4-3.9-9.3-5.9
		c-1.1-0.9-2.3-1.7-3.4-2.5c-2.6-1.9-5.3-1.9-8.8-0.3c-2,0.9-4.2,2.3-6.5,3.7c-5.1,3.3-10.2,6.5-16.3,6.8
		C97.3,183.4,97,183.4,96.5,183.4z"/>
	<path class="st0" d="M187.5,218.9h-60.1c-2.5,0-4.3-1.9-4.3-4.3s1.9-4.3,4.3-4.3h56.2L196.5,74h-77.9l1.9,19.6
		c0.2,2.5-1.6,4.5-3.9,4.8c-2.5,0.2-4.5-1.6-4.8-3.9L109.4,70c-0.2-1.2,0.3-2.5,1.1-3.3c0.8-0.9,2-1.4,3.3-1.4h87.4
		c1.2,0,2.5,0.5,3.3,1.4c0.8,0.9,1.2,2.2,1.1,3.3l-13.7,144.9C191.6,217.1,189.8,218.9,187.5,218.9z"/>
	<path class="st0" d="M155.5,73.8L155.5,73.8c-2.5,0-4.3-2-4.3-4.3c0.5-39.7,18.9-56.6,19.7-57.4c1.9-1.6,4.5-1.4,6.2,0.3
		c1.6,1.9,1.4,4.5-0.3,6.1l0,0c-0.2,0.2-16.3,15.5-16.9,51.1C159.7,72,157.8,73.8,155.5,73.8z"/>
	<path class="st0" d="M215.5,73.8H99.5c-2.5,0-4.3-1.9-4.3-4.3c0-2.5,1.9-4.3,4.3-4.3h116.1c2.5,0,4.3,1.9,4.3,4.3
		C219.9,72,218,73.8,215.5,73.8z"/>
	<ellipse class="st0" cx="61.3" cy="131" rx="4.8" ry="4.7"/>
	<ellipse class="st0" cx="125.2" cy="131" rx="4.8" ry="4.7"/>
	<ellipse class="st0" cx="95" cy="112.6" rx="5.9" ry="5.6"/>
</g>
</svg>
