<?xml version="1.0" encoding="utf-8"?>
<!-- Generator: Adobe Illustrator 22.0.0, SVG Export Plug-In . SVG Version: 6.00 Build 0)  -->
<svg version="1.1" id="Capa_1" xmlns="http://www.w3.org/2000/svg" xmlns:xlink="http://www.w3.org/1999/xlink" x="0px" y="0px"
	 viewBox="0 0 512 512" style="enable-background:new 0 0 512 512;" xml:space="preserve">
<g>
	<g>
		<g>
			<path d="M481.9,314.4h-48.7h-66.8c13.7-13.6,25.2-29.1,34.2-46c8.9,5,18.9,7.6,29.3,7.6c33.1,0,60-26.9,60-60s-26.9-60-60-60
				c-3.5,0-7.1,0.3-10.5,0.9v-26.7c0-12.5-10.2-22.7-22.7-22.7H110.9c-12.5,0-22.7,10.2-22.7,22.7V210c0,5.2,0.7,10.3,2,15.3
				l0.5,1.8c8.9,33.1,26.3,63.1,50.5,87.2H78.8H30.1c-7.8,0-14.1,6.3-14.1,14.1s6.3,14.1,14.1,14.1h48.7v2.1c0,33.1,26.9,60,60,60
				h234.3c33.1,0,60-26.9,60-60v-2.1h48.7c7.8,0,14.1-6.3,14.1-14.1S489.7,314.4,481.9,314.4z M417.6,224.9
				c1.2-4.8,1.9-9.7,1.9-14.7v-24.4c3.4-1.2,6.9-1.8,10.5-1.8c17.6,0,31.9,14.3,31.9,31.9s-14.3,31.9-31.9,31.9
				c-6.4,0-12.6-1.9-17.8-5.4C414.3,236.7,416.1,230.9,417.6,224.9z M117.8,219.8l-0.5-1.8c-0.7-2.6-1.1-5.3-1.1-8v-74.4h275v74.7
				c0,2.6-0.3,5.2-1,7.7c-8.2,31.7-25.3,60.1-49.6,82.1l-15.9,14.4H182.7l-15.6-14.2C143.2,278.6,126.2,250.8,117.8,219.8z
				 M373.2,376.5H138.8c-17.6,0-31.9-14.3-31.9-31.9v-2.1h64.9h163.9h69.3v2.1h0C405.1,362.2,390.8,376.5,373.2,376.5z"/>
		</g>
	</g>
</g>
</svg>
