<?xml version="1.0" encoding="utf-8"?>
<!-- Generator: Adobe Illustrator 20.0.0, SVG Export Plug-In . SVG Version: 6.00 Build 0)  -->
<svg version="1.1" id="Capa_1" xmlns="http://www.w3.org/2000/svg" xmlns:xlink="http://www.w3.org/1999/xlink" x="0px" y="0px"
	 viewBox="0 0 229.2 229.2" style="enable-background:new 0 0 229.2 229.2;" xml:space="preserve">
<style type="text/css">
	.st0{fill:#FFFFFF;}
</style>
<g>
	<path class="st0" d="M100.9,192.8C72.8,192.8,50,170,50,141.9c0-2.4-2-4.4-4.4-4.4s-4.4,2-4.4,4.4c0,32.9,26.7,59.7,59.7,59.7
		c2.4,0,4.4-2,4.4-4.4S103.4,192.8,100.9,192.8z"/>
	<path class="st0" d="M196.1,119.7h-17.7V99.8c0-2.4-2-4.4-4.4-4.4H28c-2.4,0-4.4,2-4.4,4.4v42.1c0,29.8,16.8,55.6,41.5,68.7h-13
		c-2.4,0-4.4,2-4.4,4.4s2,4.4,4.4,4.4h97.4c2.4,0,4.4-2,4.4-4.4s-2-4.4-4.4-4.4h-12.8c19.6-10.3,34.3-28.7,39.4-50.9h19.8
		c11,0,19.9-8.9,19.9-19.9C216,128.6,207,119.7,196.1,119.7z M169.5,104.3v15.6H32.4v-15.6H169.5z M100.9,210.5
		c-37.8,0-68.7-30.8-68.7-68.7v-13.3h137.1v13.3C169.5,179.8,138.9,210.5,100.9,210.5z M196.1,150.7h-18.3c0.3-2.9,0.5-5.7,0.5-8.8
		v-13.3H196c6,0,11,5,11,11C207.1,145.8,202.3,150.7,196.1,150.7z"/>
	<path class="st0" d="M102.2,74.5c-1.7,1.7-1.7,4.5,0,6.2c0.9,0.9,2,1.4,3.2,1.4s2.3-0.5,3.2-1.4c11.2-11.2,6-26.4,1.5-39.7
		c-4.4-13.1-6.6-21.4-1.5-26.6c1.7-1.7,1.7-4.5,0-6.2s-4.5-1.7-6.2,0c-9.4,9.4-5,22.8-0.8,35.6C105.6,56,109.4,67.3,102.2,74.5z"/>
	<path class="st0" d="M75.6,63.5c-1.7,1.7-1.7,4.5,0,6.2c0.9,0.9,2,1.4,3.2,1.4c1.1,0,2.3-0.5,3.2-1.4c6.3-6.3,3.9-14.2,2.3-19.9
		c-1.8-5.9-2.3-8.8,0-11.2c1.7-1.7,1.7-4.5,0-6.2s-4.5-1.7-6.2,0c-6.3,6.3-3.9,14.2-2.3,19.9C77.4,58.4,78,61.3,75.6,63.5z"/>
	<path class="st0" d="M128.7,63.5c-1.7,1.7-1.7,4.5,0,6.2c0.9,0.9,2,1.4,3.2,1.4s2.3-0.5,3.2-1.4c6.3-6.3,3.9-14.2,2.3-19.9
		c-1.8-5.9-2.3-8.8,0-11.2c1.7-1.7,1.7-4.5,0-6.2s-4.5-1.7-6.2,0c-6.3,6.3-3.9,14.2-2.3,19.9C130.5,58.4,131,61.3,128.7,63.5z"/>
</g>
</svg>
