<?xml version="1.0" encoding="utf-8"?>
<!-- Generator: Adobe Illustrator 20.0.0, SVG Export Plug-In . SVG Version: 6.00 Build 0)  -->
<svg version="1.1" id="Layer_1" xmlns="http://www.w3.org/2000/svg" xmlns:xlink="http://www.w3.org/1999/xlink" x="0px" y="0px"
	 viewBox="0 0 229 229" style="enable-background:new 0 0 229 229;" xml:space="preserve">
<style type="text/css">
	.st0{fill:#FFFFFF;}
</style>
<g>
	<g>
		<g>
			<path class="st0" d="M28.9,105.1c-0.9,0-1.4-0.6-1.7-1.1c-0.3-0.9,0-2,1.1-2.3c12-4.3,10.3-12.9,10-13.2l-3.1-39.2
				c0-0.9,0.6-1.7,1.7-2c0.9,0,1.7,0.6,2,1.7L42,87.9l0,0c0,0,2.9,11.4-12.3,16.9C29.4,105.1,29.2,105.1,28.9,105.1z"/>
			<path class="st0" d="M28.9,106.1c-0.7,0-1.8-0.3-2.6-1.6l-0.1-0.2c-0.3-0.8-0.2-1.6,0.2-2.3c0.3-0.6,0.9-1.1,1.6-1.3
				c4.3-1.6,7.3-3.9,8.7-6.9c1.1-2.3,0.9-4.3,0.7-4.8l-0.1-0.1l-3.1-39.6c0-1.5,1-2.6,2.4-3l0.3,0c1.4,0,2.6,1,3,2.4l0,0.2L43,87.8
				c0.2,1.2,2.1,12.4-12.8,17.9C29.7,106.1,29.2,106.1,28.9,106.1z M28.1,103.6c0.3,0.5,0.6,0.5,0.9,0.5c0,0,0,0,0,0l0.1-0.1
				l0.3-0.1C43.5,98.8,41.1,88.6,41,88.1l0-0.2l-3.1-38.8c-0.2-0.5-0.5-0.8-0.9-0.9c-0.5,0.2-0.8,0.5-0.8,1l3.1,39
				c0.3,0.9,0.4,2.6,0,4.2c-0.7,3.2-3.1,7.5-10.7,10.2c-0.3,0.1-0.4,0.2-0.5,0.3C28.1,103.1,28.1,103.4,28.1,103.6z"/>
		</g>
	</g>
	<g>
		<g>
			<path class="st0" d="M21.4,105.1c-0.3,0-0.3,0-0.6,0C5.7,99.6,8.5,87.9,8.5,87.6L11.7,49c0-0.9,0.9-1.7,2-1.7
				c0.9,0,1.7,0.9,1.7,2L12,88.2c0,0.6-2,8.9,10,13.5c0.9,0.3,1.4,1.4,1.1,2.3C22.9,104.5,22.3,105.1,21.4,105.1z"/>
			<path class="st0" d="M21.4,106.1h-0.8l-0.2-0.1c-14-5.1-13.5-15.4-13-18.5l3.2-38.7c0-1.4,1.4-2.6,3-2.6c1.5,0,2.7,1.4,2.7,3
				l-3.4,39c0,0,0,0,0,0.3c-0.7,5.4,2.6,9.6,9.4,12.2c1.4,0.5,2.2,2.1,1.7,3.5C23.7,105.2,22.7,106.1,21.4,106.1z M21,104.1h0.4
				c0.5,0,0.7-0.3,0.8-0.5c0.1-0.3-0.1-0.9-0.5-1c-7.7-3-11.5-8-10.7-14.3l0-0.2l3.4-39c0-0.5-0.4-0.9-0.7-0.9c-0.6,0-1,0.4-1,0.7
				L9.5,87.7c0,0,0,0,0,0c0,0,0,0.1,0,0.2C9,90.5,8.6,99.5,21,104.1z"/>
		</g>
	</g>
	<g>
		<g>
			<path class="st0" d="M20.9,86.8c-0.9,0-1.7-0.9-1.7-1.7V44.7c0-0.9,0.9-1.7,1.7-1.7c0.9,0,1.7,0.9,1.7,1.7V85
				C22.6,85.9,21.7,86.8,20.9,86.8z"/>
			<path class="st0" d="M20.9,87.8c-1.4,0-2.7-1.3-2.7-2.7V44.7c0-1.4,1.3-2.7,2.7-2.7s2.7,1.3,2.7,2.7V85
				C23.6,86.4,22.3,87.8,20.9,87.8z M20.9,44c-0.3,0-0.7,0.4-0.7,0.7v40.4c0,0.3,0.4,0.7,0.7,0.7c0.2,0,0.7-0.4,0.7-0.8V44.7
				C21.6,44.4,21.2,44,20.9,44z"/>
		</g>
	</g>
	<g>
		<g>
			<path class="st0" d="M29.4,86.8c-0.9,0-1.7-0.9-1.7-1.7V44.7c0-0.9,0.9-1.7,1.7-1.7c0.9,0,1.7,0.9,1.7,1.7V85
				C31.2,85.9,30.3,86.8,29.4,86.8z"/>
			<path class="st0" d="M29.4,87.8c-1.4,0-2.7-1.3-2.7-2.7V44.7c0-1.4,1.3-2.7,2.7-2.7s2.7,1.3,2.7,2.7V85c0.1,0.7-0.2,1.4-0.7,1.9
				C30.9,87.4,30.1,87.8,29.4,87.8z M29.4,44c-0.3,0-0.7,0.4-0.7,0.7v40.4c0,0.3,0.4,0.7,0.7,0.7c0.2,0,0.4-0.1,0.5-0.3
				c0.1-0.1,0.2-0.3,0.2-0.4l0-0.1V44.7C30.1,44.4,29.7,44,29.4,44z"/>
		</g>
	</g>
	<g>
		<g>
			<path class="st0" d="M210,122c-0.6,0-0.9-0.3-1.4-0.6c-0.6-0.6-6.3-7.2-7.4-10.6c-3.4-11.2,2.9-38.6,3.1-39.8l0.6-2.9
				c5.2-24.9,5.4-26,10-25.8c1.1,0,2.3,0.6,3.1,1.4c1.7,2,1.4,5.2,1.4,5.4c0,0.9-1.1,1.7-2,1.7s-1.7-0.9-1.7-2c0-0.6,0-2.3-0.6-2.9
				c0,0-0.3-0.3-0.6-0.3c-0.6,0-0.6,0-0.6,0c-1.1,0.6-2.9,8.6-5.7,22.9l-0.6,2.9c0,0.3-6.3,27.8-3.1,38.1c0.9,2.6,5.2,7.4,6.6,9.4
				c0.6,0.9,0.6,1.7,0,2.6C210.9,122,210.3,122,210,122z"/>
			<path class="st0" d="M210,123c-0.8,0-1.3-0.3-1.7-0.6c-0.1-0.1-0.2-0.1-0.3-0.2l-0.2-0.2c-0.5-0.5-6.4-7.3-7.6-11
				c-2.6-8.7,0.1-26.2,2.9-39.4c0.1-0.4,0.2-0.7,0.2-0.8l0.7-3.4c5.2-24.9,5.5-26.4,10.9-26.1c0,0,0,0,0,0c1.3,0,2.7,0.6,3.8,1.7
				c1.7,1.9,1.8,4.6,1.7,6.1c0,1.6-1.6,2.7-3,2.7c-1.5,0-2.7-1.4-2.7-3c0-1.8-0.3-2.1-0.3-2.2c0,0,0,0,0,0h0c-1.3,2.2-4,16-5.2,22.1
				l-0.6,2.9c0,0.1-0.1,0.3-0.2,0.9c-3.7,17.9-4.8,30.9-3,36.8c0.6,1.7,2.9,4.6,4.6,6.8c0.8,0.9,1.4,1.8,1.8,2.4
				c0.8,1.2,0.8,2.4,0.1,3.7C211.7,122.7,211,123,210,123z M209.2,120.6c0.1,0,0.1,0.1,0.2,0.1c0.4,0.3,0.5,0.3,0.8,0.2l0,0
				c0.4-0.6,0.4-0.9,0-1.5c-0.4-0.5-1-1.3-1.7-2.2c-1.9-2.4-4.3-5.4-5-7.4c-2.6-8.3,0.7-27.3,2.9-37.8c0.1-0.3,0.1-0.6,0.1-0.7
				l0-0.1l0.6-2.9c3.8-19.5,4.9-22.9,6.2-23.6l0.2-0.1h0.9c0.7,0,1.2,0.5,1.3,0.6c0.8,0.8,0.9,2.3,0.9,3.6c0,0.6,0.4,1,0.7,1
				c0.5,0,1-0.5,1-0.7l0-0.1c0.1-1.9-0.3-3.6-1.2-4.6c-0.6-0.6-1.6-1-2.3-1c-3.6-0.2-3.8-0.2-8.9,24.5l-0.7,3.4
				c0,0.1-0.1,0.4-0.2,0.9c-3.9,18.3-4.9,32-2.9,38.4C203.1,113.5,208.3,119.6,209.2,120.6z"/>
		</g>
	</g>
	<g>
		<g>
			<path class="st0" d="M25.1,186.6c-3.1,0-5.4-2.6-5.4-5.4v-76.7c0-0.9,0.9-1.7,1.7-1.7c0.9,0,1.7,0.9,1.7,1.7v76.7
				c0,1.1,0.9,2,2,2s2-0.9,2-2v-76.7c0-0.9,0.9-1.7,1.7-1.7s1.7,0.9,1.7,1.7v76.7C30.9,184.4,28.3,186.6,25.1,186.6z"/>
			<path class="st0" d="M25.1,187.6c-3.5,0-6.4-2.9-6.4-6.4v-76.7c0-1.4,1.3-2.7,2.7-2.7s2.7,1.3,2.7,2.7v76.7c0,0.6,0.4,1,1,1
				s1-0.4,1-1v-76.7c0-1.4,1.3-2.7,2.7-2.7c1.4,0,2.7,1.3,2.7,2.7v76.6c0.2,1.6-0.3,3.2-1.3,4.3C29,186.8,27.1,187.6,25.1,187.6z
				 M21.4,103.8c-0.3,0-0.7,0.4-0.7,0.7v76.7c0,2.1,1.8,4.4,4.4,4.4c1.5,0,2.8-0.5,3.6-1.5c0.7-0.8,1-1.7,0.8-2.8l0-0.1v-76.7
				c0-0.2-0.5-0.7-0.7-0.7c-0.3,0-0.7,0.4-0.7,0.7v76.7c0,1.7-1.3,3-3,3s-3-1.3-3-3v-76.7C22.1,104.2,21.7,103.8,21.4,103.8z"/>
		</g>
	</g>
	<g>
		<g>
			<path class="st0" d="M213.8,186.1c-3.1,0-5.4-2.6-5.4-5.4v-59.8c0-0.9,0.9-1.7,1.7-1.7s1.7,0.9,1.7,1.7v59.8c0,1.1,0.9,2,2,2
				s2-0.9,2-2V51.3c0-0.9,0.9-1.7,1.7-1.7c0.9,0,1.7,0.9,1.7,1.7v129.4C219.5,183.5,216.9,186.1,213.8,186.1z"/>
			<path class="st0" d="M213.8,187.1c-3.5,0-6.4-2.9-6.4-6.4v-59.8c0-1.4,1.3-2.7,2.7-2.7c1.4,0,2.7,1.3,2.7,2.7v59.8
				c0,0.6,0.4,1,1,1s1-0.4,1-1V51.3c0-1.4,1.3-2.7,2.7-2.7s2.7,1.3,2.7,2.7v129.3c0.1,1.5-0.4,3-1.5,4.3
				C217.5,186.3,215.7,187.1,213.8,187.1z M210.1,120.2c-0.3,0-0.7,0.4-0.7,0.7v59.8c0,2.1,1.8,4.4,4.4,4.4c1.3,0,2.6-0.6,3.4-1.5
				c0.7-0.8,1.1-1.8,1-2.8l0-0.1V51.3c0-0.3-0.4-0.7-0.7-0.7c-0.3,0-0.7,0.4-0.7,0.7v129.4c0,1.7-1.3,3-3,3s-3-1.3-3-3v-59.8
				C210.8,120.7,210.3,120.2,210.1,120.2z"/>
		</g>
	</g>
	<g>
		<g>
			<path class="st0" d="M119,182.9c-37.8,0-68.4-30.6-68.4-68.4S81.2,45.8,119,45.8s68.4,30.9,68.4,68.7S156.8,182.9,119,182.9z
				 M119,49.5c-35.8,0-65,29.2-65,65s29.2,65,65,65s65-29.2,65-65S154.8,49.5,119,49.5z"/>
			<path class="st0" d="M119,183.9c-38.3,0-69.4-31.1-69.4-69.4c0-38.4,31.1-69.7,69.4-69.7c38.3,0,69.4,31.3,69.4,69.7
				C188.4,152.8,157.3,183.9,119,183.9z M119,46.8c-37.2,0-67.4,30.4-67.4,67.7c0,37.2,30.2,67.4,67.4,67.4
				c37.2,0,67.4-30.2,67.4-67.4C186.4,77.2,156.2,46.8,119,46.8z M119,180.5c-36.4,0-66-29.6-66-66s29.6-66,66-66s66,29.6,66,66
				S155.4,180.5,119,180.5z M119,50.5c-35.3,0-64,28.7-64,64c0,35.3,28.7,64,64,64c35.3,0,64-28.7,64-64
				C183,79.2,154.3,50.5,119,50.5z"/>
		</g>
	</g>
	<g>
		<g>
			<path class="st0" d="M119,167.2c-28.9,0-52.7-23.5-52.7-52.7S89.8,61.9,119,61.9c28.9,0,52.7,23.5,52.7,52.7
				S147.9,167.2,119,167.2z M119,65.3c-27.2,0-49.2,22-49.2,49.2s22,48.9,49.2,48.9s48.9-22,48.9-48.9C168,87.3,145.9,65.3,119,65.3
				z"/>
			<path class="st0" d="M119,168.2c-29.6,0-53.7-24.1-53.7-53.7c0-29.6,24.1-53.6,53.7-53.6s53.7,24.1,53.7,53.7
				C172.7,144.2,148.6,168.2,119,168.2z M119,62.9c-28.5,0-51.7,23.1-51.7,51.6c0,28.5,23.2,51.7,51.7,51.7s51.7-23.1,51.7-51.6
				C170.7,86.1,147.5,62.9,119,62.9z M119,164.4c-27.7,0-50.2-22.4-50.2-49.9c0-27.7,22.5-50.2,50.2-50.2c13.3,0,25.8,5.2,35.3,14.7
				c9.5,9.5,14.7,22.1,14.6,35.5C168.9,142,146.5,164.4,119,164.4z M119,66.3c-26.6,0-48.2,21.6-48.2,48.2
				c0,26.4,21.6,47.9,48.2,47.9c26.4,0,47.9-21.5,47.9-47.9c0-12.9-4.9-25-14-34.1C143.8,71.3,131.8,66.3,119,66.3z"/>
		</g>
	</g>
</g>
</svg>
