<?xml version="1.0" encoding="utf-8"?>
<!-- Generator: Adobe Illustrator 22.0.0, SVG Export Plug-In . SVG Version: 6.00 Build 0)  -->
<svg version="1.1" id="Capa_1" xmlns="http://www.w3.org/2000/svg" xmlns:xlink="http://www.w3.org/1999/xlink" x="0px" y="0px"
	 viewBox="0 0 512 512" style="enable-background:new 0 0 512 512;" xml:space="preserve">
<g>
	<g>
		<path d="M459,345.7c0.8-71.6-35.2-138.2-96.9-175.9c-21-12.8-43.7-21.1-67-25.7c2.7-5.7,4.4-12,4.4-18.7c0-24-19.5-43.5-43.5-43.5
			s-43.5,19.5-43.5,43.5c0,6.7,1.7,13,4.4,18.7c-23.2,4.6-46,12.8-67,25.6C88.2,207.5,52.2,274.1,53,345.7c-16.8,6-29,22-29,40.8
			c0,24,19.5,43.5,43.5,43.5h377c24,0,43.5-19.5,43.5-43.5C488,367.6,475.8,351.7,459,345.7z M256,111c8,0,14.5,6.5,14.5,14.5
			c0,7.8-6.3,14.2-14,14.4c-0.3,0-0.6,0-0.9,0c-7.8-0.3-14-6.6-14-14.4C241.5,117.5,248,111,256,111z M165,194.6
			c27.8-17,59-25.5,90.2-25.6c0.3,0,0.5,0.1,0.8,0.1c0.3,0,0.5-0.1,0.8-0.1c31.2,0.1,62.4,8.6,90.2,25.6
			c52.3,31.9,83.1,88,83.1,148.5H81.9C82,282.5,112.8,226.5,165,194.6z M444.5,401h-377c-8,0-14.5-6.5-14.5-14.5S59.5,372,67.5,372
			h377c8,0,14.5,6.5,14.5,14.5S452.5,401,444.5,401z"/>
	</g>
</g>
<g>
	<g>
		<path d="M364,246.2c-27.5-30.7-66.8-48.2-108-48.2c-8,0-14.5,6.5-14.5,14.5S248,227,256,227c32.9,0,64.4,14.1,86.4,38.6
			c2.9,3.2,6.8,4.8,10.8,4.8c3.5,0,6.9-1.2,9.7-3.7C368.8,261.3,369.3,252.2,364,246.2z"/>
	</g>
</g>
</svg>
