<?xml version="1.0" encoding="utf-8"?>
<!-- Generator: Adobe Illustrator 22.0.0, SVG Export Plug-In . SVG Version: 6.00 Build 0)  -->
<svg version="1.1" id="Capa_1" xmlns="http://www.w3.org/2000/svg" xmlns:xlink="http://www.w3.org/1999/xlink" x="0px" y="0px"
	 viewBox="0 0 512 512" style="enable-background:new 0 0 512 512;" xml:space="preserve">
<g>
	<g>
		<path d="M465.6,189.4c-6-63.7-61-115.6-126.8-115.6h-41.8V59.8c0-23.1-18.8-41.8-41.8-41.8h-55.8c-7.7,0-13.9,6.2-13.9,13.9
			s6.2,13.9,13.9,13.9h55.8c7.7,0,13.9,6.3,13.9,13.9v14.7c-58.1,6.6-104.4,54.2-110.8,112.6c-45.3,0-1.1,0-46.2,0
			c-48.4,0-94.1,37.4-94.1,97.6c0,7.7,6.2,13.9,13.9,13.9h7.4C26.1,313.6,18,333.1,18,354.5s8.1,41,21.4,55.8h-7.4
			c-7.7,0-13.9,6.2-13.9,13.9c0,38.4,31.3,69.7,69.7,69.7c14.8,0,296.5,0,310.9,0c21.6,0,39.9-16.9,41.7-38.4l15.4-184.9
			c21.4-1.8,38.3-19.8,38.3-41.7C494,210.7,482.1,195,465.6,189.4z M296.9,101.7h41.8c49.2,0,91.4,37.9,98.5,85.5H296.9V101.7z
			 M269,102.7v84.5c0,0,0,0,0,0c-8.7,0-71.8,0-82.7,0C192.3,143.6,226.2,108.9,269,102.7z M93.1,217.9l-1.3,1.3
			c-5.4,5.4-5.4,14.3,0,19.7c5.4,5.4,14.3,5.4,19.7,0l23.8-23.8h30.3l-4.1,4.1c-5.4,5.4-5.4,14.3,0,19.7c5.4,5.4,14.3,5.4,19.7,0
			l23.8-23.8h30.3l-4.1,4.1c-5.4,5.4-5.4,14.3,0,19.7c5.4,5.4,14.3,5.4,19.7,0l22.2-22.2c26.2,5.9,46.6,27.4,50.8,54.2h-55H101.7
			h-55C50.7,245.6,69.1,225.1,93.1,217.9z M60.5,354.6c6.7,0,12.6,3.2,16.3,8.7c18.8,28.2,60.2,28.2,79,0c7.8-11.6,24.8-11.7,32.6,0
			c18.8,28.2,60.2,28.2,79,0c7.8-11.7,24.8-11.6,32.6,0c4.8,7.2,11.3,12.8,18.8,16.4c-9.2,18.2-28.1,30.6-49.8,30.6H101.7
			c-28.7,0-52.3-21.7-55.4-49.6C49.9,356.8,55,354.6,60.5,354.6z M283,466.1H87.7c-18.2,0-33.7-11.8-39.4-28c12,0,262.4,0,274.1,0
			C316.7,454.4,301.1,466.1,283,466.1z M323.2,347.8c-18.8-28.2-60.2-28.2-79,0c-7.8,11.6-24.8,11.7-32.6,0
			c-18.8-28.2-60.2-28.2-79,0c-7.8,11.6-24.8,11.7-32.6,0c-8.8-13.2-23.6-21.1-39.5-21.1c-2.5,0-5,0.2-7.5,0.6
			c9.6-17,27.8-28.5,48.6-28.5H269c29.1,0,53.1,22.4,55.6,50.9C324.1,349.1,323.6,348.5,323.2,347.8z M412.5,453.3
			c-0.6,7.2-6.7,12.8-13.9,12.8h-59.9c8.8-11.7,14-26.2,14-41.8c0-7.7-6.2-13.9-13.9-13.9h-7.4c9.1-10.1,15.7-22.5,19-36.1
			c0-0.1,0-0.1,0-0.2c1.5-6.3,2.3-12.8,2.3-19.5c0-21.4-8.1-41-21.4-55.8h7.4c7.7,0,13.9-6.2,13.9-13.9c0-4.2,0.1-8-0.6-13.9h75.6
			L412.5,453.3z M452.2,243H344.5c-4.7-10.4-11.2-19.9-19.1-27.9h126.8c7.7,0,13.9,6.3,13.9,13.9S459.9,243,452.2,243z"/>
	</g>
</g>
</svg>
